<svg xmlns="http://www.w3.org/2000/svg" viewBox="31.02505593571962 111.07785950257036 462.74284675868853 457.663931268914"> <svg xmlns="http://www.w3.org/2000/svg" xmlns:xlink="http://www.w3.org/1999/xlink" version="1.1" id="Layer_1" x="101.02505593571962" y="181.07785950257036" viewBox="77.95500183105469 116.1780014038086 439.3699951171875 372.92401123046875" enable-background="new 0 0 595.28 595.28" xml:space="preserve" height="273.92214049742967" width="322.7428467586885" preserveAspectRatio="xMinYMin" style="overflow: visible;"><path fill="#009444" d="M164.843,185.444c-1.174-0.509-2.543,0.03-3.053,1.208l-4.615,10.654l-0.479-1.532  c-0.283-0.908-1.092-1.552-2.041-1.623c-0.955-0.067-1.845,0.443-2.262,1.298l-6.282,12.892l-0.653-2.22  c-0.26-0.883-1.017-1.529-1.93-1.647c-0.92-0.12-1.81,0.314-2.285,1.102l-8.967,14.833c-0.231-6.128,1.501-16.552,12.617-27.945  c7.2-7.382,15.428-11.346,25.153-12.12c1.278-0.101,2.232-1.22,2.13-2.498c-0.101-1.279-1.212-2.227-2.498-2.131  c-10.745,0.855-20.202,5.399-28.11,13.506c-19.564,20.055-12.976,37.806-12.687,38.551c0.321,0.825,1.083,1.396,1.964,1.472  c0.067,0.005,0.135,0.008,0.201,0.008c0.808,0,1.563-0.421,1.986-1.121l9.457-15.642l0.856,2.911  c0.271,0.919,1.079,1.578,2.034,1.658c0.96,0.076,1.861-0.435,2.281-1.297l6.345-13.021l0.599,1.917  c0.289,0.926,1.124,1.575,2.093,1.626c0.975,0.052,1.868-0.506,2.254-1.396l7.099-16.39  C166.561,187.32,166.02,185.953,164.843,185.444z M258.396,153.709c-5.136-5.233-14.486-11.172-29.888-9.751  c-16.979,1.567-27.087,9.804-32.823,17.151c0.367-7.858-0.766-17.94-6.742-26.906c-11.877-17.814-33.56-16.104-34.477-16.023  c-0.982,0.087-1.801,0.785-2.044,1.74c-0.244,0.954,0.142,1.959,0.962,2.505l16.725,11.148l-4.284,1.071  c-0.879,0.22-1.551,0.932-1.718,1.822c-0.168,0.892,0.198,1.799,0.938,2.324l10,7.096l-2.496,0.44  c-0.77,0.136-1.42,0.65-1.729,1.368c-0.31,0.718-0.236,1.544,0.194,2.197l4.288,6.504c-7.174-4.038-17.614-7.492-31.598-6.347  c-25.184,2.064-32.41,18.983-34.348,26.161c-0.234,0.866,0.052,1.789,0.734,2.371c0.428,0.366,0.965,0.556,1.508,0.556  c0.321,0,0.645-0.067,0.949-0.203l20.228-9.071l-1.372,3.724c-0.306,0.83-0.113,1.762,0.497,2.403  c0.61,0.642,1.531,0.878,2.375,0.616l24.588-7.683l-1.083,2.031c-0.377,0.707-0.363,1.557,0.036,2.251  c0.4,0.694,1.128,1.133,1.929,1.162l21.145,0.769c1.271,0.031,2.358-0.954,2.405-2.236c0.046-1.282-0.955-2.358-2.236-2.405  l-17.432-0.634l2.001-3.751c0.443-0.832,0.341-1.849-0.26-2.575c-0.601-0.725-1.581-1.016-2.481-0.734l-25.494,7.965l1.65-4.479  c0.323-0.877,0.089-1.862-0.594-2.5c-0.683-0.637-1.681-0.803-2.535-0.422l-20.234,9.073c3.294-6.972,10.94-16.331,28.403-17.762  c26.87-2.206,39.198,13.905,39.706,14.587c0.747,1.012,2.165,1.246,3.197,0.526c1.033-0.72,1.303-2.131,0.61-3.182l-10.76-16.322  l4.486-0.792c0.922-0.163,1.656-0.864,1.862-1.777c0.205-0.914-0.158-1.861-0.922-2.403l-10.413-7.389l4.479-1.12  c0.891-0.223,1.567-0.95,1.724-1.856c0.157-0.905-0.235-1.818-1-2.328l-13.92-9.278c6.67,1.133,15.909,4.382,21.947,13.437  c10.145,15.217,4.392,34.955,3.965,36.348c-0.031,0.098-0.047,0.153-0.05,0.164c-0.344,1.217,0.348,2.485,1.558,2.854  c1.211,0.369,2.492-0.3,2.884-1.501c0.017-0.051,0.053-0.166,0.106-0.34c0.835-2.537,8.467-23.236,35.393-25.721  c10.908-1.007,19.702,1.813,26.147,8.38c4.142,4.22,6.4,9.069,7.496,12.579l-21.336-13.965c-0.8-0.524-1.838-0.504-2.617,0.05  c-0.779,0.554-1.139,1.528-0.908,2.456l1.347,5.388l-19.037-5.828c-0.888-0.271-1.852,0.012-2.452,0.721  c-0.6,0.709-0.72,1.707-0.305,2.538l1.802,3.605l-13.958-1.79c-0.886-0.112-1.759,0.291-2.244,1.041s-0.498,1.711-0.032,2.473  l2.656,4.346c0.67,1.096,2.1,1.438,3.192,0.771c1.095-0.669,1.439-2.098,0.771-3.192l-0.132-0.216l13.477,1.727  c0.845,0.106,1.692-0.26,2.188-0.959c0.497-0.699,0.567-1.615,0.184-2.382l-1.328-2.656l17.787,5.446  c0.8,0.245,1.67,0.041,2.278-0.536c0.607-0.576,0.857-1.435,0.654-2.247l-0.905-3.62l20.813,13.624  c0.676,0.442,1.531,0.501,2.262,0.158c0.73-0.344,1.229-1.043,1.318-1.844C268.427,171.279,265.91,161.365,258.396,153.709z   M246.718,180.765c-26.28-18.495-50.352-3.498-50.592-3.343c-0.675,0.432-1.08,1.182-1.07,1.983  c0.009,0.801,0.432,1.542,1.117,1.957c8.636,5.243,23.659,17.183,27.235,38.246c2.073,12.204-1.065,20.302-4.008,24.907  l1.119-26.135c0.042-0.995-0.554-1.906-1.483-2.265c-0.927-0.358-1.983-0.086-2.621,0.68l-4.985,5.981l0.652-15.646  c0.04-0.956-0.511-1.839-1.387-2.223c-0.876-0.385-1.899-0.193-2.575,0.485l-4.146,4.145l-0.327-12.407  c-0.025-0.962-0.641-1.81-1.549-2.129c-0.908-0.32-1.919-0.046-2.542,0.688l-6.303,7.428c-0.829,0.978-0.709,2.443,0.269,3.273  c0.976,0.829,2.441,0.709,3.273-0.269l2.371-2.793l0.308,11.733c0.024,0.927,0.599,1.752,1.461,2.096  c0.861,0.343,1.846,0.142,2.502-0.515l3.757-3.757l-0.688,16.548c-0.042,0.995,0.556,1.905,1.484,2.263  c0.929,0.359,1.982,0.084,2.619-0.68l4.976-5.972l-1.11,25.945c-0.039,0.902,0.449,1.745,1.25,2.161  c0.337,0.174,0.704,0.26,1.069,0.26c0.503,0,1.004-0.163,1.418-0.482c0.562-0.434,13.719-10.877,9.775-34.097  c-2.668-15.717-11.831-29.506-25.958-39.212c6.984-3.027,23.821-7.861,42.017,4.944c10.855,7.637,12.951,18.334,12.062,27.637  l-9.113-18.382c-0.44-0.887-1.397-1.397-2.375-1.272c-0.982,0.126-1.776,0.861-1.979,1.83l-1.266,6.075l-10.04-13.986  c-0.516-0.718-1.393-1.079-2.264-0.938c-0.872,0.144-1.585,0.77-1.843,1.615l-1.949,6.402l-8.501-11.336  c-0.769-1.026-2.225-1.233-3.251-0.465c-1.026,0.77-1.233,2.225-0.464,3.251l11.247,14.998c0.525,0.699,1.399,1.044,2.259,0.893  c0.862-0.151,1.565-0.773,1.82-1.61l1.915-6.286l10.382,14.462c0.537,0.749,1.464,1.11,2.367,0.917  c0.901-0.19,1.604-0.896,1.792-1.798l0.974-4.671l9.281,18.722c0.433,0.873,1.36,1.381,2.333,1.277  c0.969-0.106,1.768-0.807,2.001-1.752C262.351,208.314,262.515,191.879,246.718,180.765z M192.921,195.77  c2.737-1.679,4.5-4.685,4.5-8.017c0-5.194-4.225-9.419-9.418-9.419c-2.054,0-4.02,0.671-5.633,1.878  c-1.454-0.825-3.129-1.303-4.917-1.303c-5.511,0-9.994,4.483-9.994,9.995c0,4.62,3.155,8.506,7.421,9.646  c0.034,5.059,4.158,9.165,9.225,9.165c5.087,0,9.225-4.139,9.225-9.227C193.331,197.542,193.187,196.629,192.921,195.77z   M176.028,194.036c-2.255-0.629-3.924-2.68-3.924-5.132c0-2.951,2.4-5.351,5.35-5.351c2.951,0,5.351,2.4,5.351,5.351  c0,0.155-0.029,0.311-0.043,0.466C179.861,189.796,177.394,191.567,176.028,194.036z M184.106,203.07  c-2.528,0-4.584-2.056-4.584-4.583c0-2.526,2.056-4.583,4.584-4.583c2.526,0,4.581,2.056,4.581,4.583  C188.687,201.015,186.632,203.07,184.106,203.07z M190.466,191.821c-0.877-0.837-1.917-1.5-3.069-1.943  c0.033-0.324,0.052-0.649,0.052-0.975c0-1.989-0.591-3.839-1.595-5.397c0.66-0.335,1.39-0.529,2.149-0.529  c2.633,0,4.774,2.143,4.774,4.776C192.778,189.451,191.868,190.974,190.466,191.821z" style="fill: #000; fill-opacity: 1;"></path><path fill="#1C75BC" d="M273.01,313.256c7.39,2.511,14.371,4.882,21.48,6.021c2.463,0.396,4.946,0.707,7.379,0.925  c0.07,0.007,0.142,0.01,0.211,0.01c1.188,0,2.201-0.908,2.31-2.114c0.114-1.278-0.828-2.406-2.105-2.521  c-2.325-0.209-4.701-0.506-7.058-0.885c-6.724-1.078-13.523-3.388-20.722-5.833c-19.172-6.511-40.901-13.894-65.093,2.993  c-1.051,0.734-1.309,2.182-0.574,3.233c0.734,1.051,2.18,1.311,3.233,0.574C234.334,300.118,253.996,306.796,273.01,313.256z   M390.638,329.907c-7.352,6.861-28.275,8.192-48.67,3.095c-21.021-5.259-33.955,3.911-34.495,4.305  c-1.035,0.752-1.263,2.197-0.514,3.234c0.453,0.628,1.164,0.962,1.885,0.962c0.47,0,0.944-0.142,1.354-0.436  c0.114-0.083,11.83-8.264,30.643-3.561c18.413,4.603,42.838,5.248,52.966-4.206c0.938-0.874,0.987-2.344,0.112-3.281  S391.575,329.032,390.638,329.907z M461.14,326.389c-38.796,5.929-65.6-17.506-65.864-17.741c-0.612-0.55-1.47-0.735-2.251-0.484  c-0.783,0.249-1.377,0.894-1.562,1.694c-1.047,4.567-4.658,8.467-10.168,10.979c-8.535,3.889-19.889,3.733-27.608-0.382  c-6.983-3.726-11.774-9.567-16.408-15.218c-5.803-7.076-11.284-13.761-20.48-16.129c-17.277-4.451-23.972,7.943-24.038,8.069  c-0.476,0.913-0.293,2.03,0.449,2.746c0.741,0.713,1.866,0.854,2.761,0.345c0.792-0.45,7.77-2.409,13.498,2.466  c2.353,2.001,4.225,7.302,3.146,12.372c-0.799,3.758-3.507,8.754-11.868,11.213c-11.366,3.338-32.651-3.749-38.904-6  c-6.624-2.387-22.135-7.977-33.586,1.714c-0.979,0.828-1.101,2.293-0.272,3.271c0.829,0.981,2.294,1.101,3.272,0.273  c8.333-7.052,19.881-4.181,29.012-0.889c8.445,3.04,29.42,9.72,41.788,6.084c8.237-2.421,13.6-7.643,15.102-14.702  c1.508-7.09-1.284-13.986-4.679-16.874c-3.559-3.027-7.58-4.122-11.032-4.292c2.978-1.759,7.567-3.006,14.193-1.299  c7.728,1.991,12.741,8.104,18.049,14.578c4.923,6.002,10.012,12.208,17.814,16.37c9.053,4.826,21.801,5.029,31.72,0.51  c5.529-2.521,9.55-6.284,11.622-10.799c6.838,5.182,26.229,17.756,53.415,17.756c4.335,0,8.872-0.32,13.583-1.041  c1.268-0.194,2.139-1.379,1.944-2.646C463.592,327.064,462.409,326.186,461.14,326.389z M486.979,298.838  c-0.988-0.813-2.45-0.67-3.266,0.313c-0.091,0.109-9.285,10.913-30.479,12.475c-20.768,1.531-40.399-12.256-55.173-24.44  c-13.434-11.073-23.637-18.35-42.345-18.599c-0.163-0.002-0.32-0.003-0.479-0.003c-19.077,0-22.707,15.458-22.742,15.616  c-0.177,0.806,0.086,1.645,0.691,2.205c0.606,0.561,1.463,0.758,2.253,0.516c0.516-0.157,12.671-3.729,16.664,6.25  c2.894,7.235-4.443,11.138-5.282,11.555c-1.152,0.563-1.631,1.953-1.067,3.105c0.563,1.151,1.954,1.633,3.105,1.067  c4.205-2.055,11.196-8.346,7.556-17.452c-3.507-8.767-11.534-10.458-17.815-9.849c2.111-3.525,6.803-8.368,16.647-8.368  c0.135,0,0.271,0.001,0.407,0.003c17.232,0.229,26.4,6.778,39.452,17.538c14.623,12.061,33.873,25.619,54.92,25.619  c1.178,0,2.36-0.042,3.549-0.13c23.318-1.718,33.316-13.655,33.73-14.162C488.113,301.104,487.966,299.65,486.979,298.838z" style="fill: #000; fill-opacity: 1;"></path><path fill="#726658" d="M167.954,318.747c0.287,1.026,1.22,1.697,2.235,1.697c0.207,0,0.418-0.028,0.627-0.087  c1.235-0.346,1.956-1.627,1.61-2.861c-13.623-48.665-4.758-85.569,5.077-107.958c0.516-1.174-0.018-2.544-1.192-3.06  c-1.175-0.518-2.544,0.017-3.06,1.192C163.111,230.753,153.961,268.761,167.954,318.747z M173.966,309.632  c0,1.282,1.04,2.322,2.322,2.322c10.627,0,17.748,3.989,17.868,4.058c0.365,0.211,0.764,0.311,1.158,0.311  c0.801,0,1.581-0.414,2.011-1.156c0.644-1.11,0.266-2.531-0.844-3.174c-0.33-0.191-8.213-4.683-20.193-4.683  C175.005,307.31,173.966,308.35,173.966,309.632z M146.05,333.422h0.043c1.283-0.024,2.303-1.082,2.279-2.364  c-1.101-60.245,6.984-103.613,24.03-128.899c0.716-1.063,0.436-2.506-0.627-3.223c-1.063-0.717-2.506-0.437-3.224,0.627  c-17.59,26.093-25.941,70.363-24.822,131.581C143.753,332.41,144.788,333.422,146.05,333.422z M138.012,317.573  c-17.663,10.418-27.582,8.757-27.779,8.721c-1.248-0.253-2.469,0.551-2.73,1.801c-0.263,1.255,0.542,2.485,1.797,2.748  c0.13,0.027,1.11,0.218,2.888,0.218c4.516,0,14.183-1.229,28.184-9.486c1.104-0.652,1.472-2.075,0.82-3.18  C140.541,317.289,139.117,316.924,138.012,317.573z M271.835,340.264c-0.147-1.273-1.294-2.182-2.573-2.04  c-16.779,1.938-23.614-0.313-46.271-7.765c-4.129-1.358-8.775-2.887-14.089-4.59c-32.664-10.475-61.959,12.781-63.19,13.776  c-0.997,0.806-1.152,2.269-0.346,3.265c0.459,0.568,1.13,0.863,1.808,0.863c0.512,0,1.028-0.17,1.458-0.517  c0.282-0.228,28.553-22.684,58.853-12.965c5.301,1.699,9.937,3.224,14.056,4.578c23.403,7.696,30.467,10.018,48.254,7.967  C271.068,342.689,271.981,341.538,271.835,340.264z" style="fill: #000; fill-opacity: 1;"></path><path fill="#F58220" d="M476.125,231.396h-49.616c-0.788-2.214-1.688-4.379-2.688-6.494h17.203c1.281,0,2.321-1.04,2.321-2.322  c0-1.283-1.04-2.322-2.321-2.322h-19.629c-10.215-18.017-28.225-31.402-50.228-34.867c-18.553-2.921-37.134,1.559-52.317,12.612  c-14.929,10.867-24.801,26.816-27.905,44.98h-16.603c-1.283,0-2.322,1.04-2.322,2.322c0,1.282,1.04,2.322,2.322,2.322h15.959  c-0.219,2.108-0.345,4.219-0.374,6.327h-42.229c-1.282,0-2.322,1.04-2.322,2.322c0,1.283,1.04,2.322,2.322,2.322h42.319  c0.412,7.818,2.122,15.533,5.104,22.817c0.487,1.188,1.84,1.754,3.029,1.27c1.187-0.486,1.755-1.842,1.269-3.028  c-2.752-6.724-4.341-13.843-4.748-21.059h43.931c1.282,0,2.322-1.04,2.322-2.322c0-1.282-1.04-2.322-2.322-2.322h-44.03  c0.03-2.108,0.166-4.22,0.399-6.327h21.453c1.282,0,2.322-1.04,2.322-2.322c0-1.283-1.04-2.322-2.322-2.322h-20.758  c3.046-16.639,12.191-31.233,25.918-41.226c14.182-10.324,31.531-14.507,48.862-11.779c19.607,3.087,35.818,14.612,45.552,30.279  h-25.938c-1.282,0-2.322,1.04-2.322,2.322c0,1.282,1.04,2.322,2.322,2.322h28.575c1.083,2.106,2.049,4.274,2.902,6.494h-49.703  c-1.281,0-2.321,1.04-2.321,2.322s1.04,2.322,2.321,2.322h51.31c2.745,9.128,3.539,18.992,1.959,29.021  c-1.355,8.605-4.328,16.704-8.837,24.069c-0.669,1.094-0.325,2.523,0.768,3.193c0.379,0.232,0.798,0.342,1.211,0.342  c0.78,0,1.545-0.396,1.982-1.11c4.829-7.889,8.014-16.56,9.464-25.771c1.614-10.254,0.895-20.342-1.731-29.743h48.165  c1.282,0,2.322-1.04,2.322-2.322S477.407,231.396,476.125,231.396z" style="fill: #000; fill-opacity: 1;"></path><path fill="#726658" d="M129.959,234.715c-1.208-0.432-2.537,0.193-2.971,1.399c-7.066,19.649-10.65,40.295-10.65,61.366  c0,7.123,0.418,14.299,1.242,21.331c0.139,1.183,1.142,2.052,2.303,2.052c0.09,0,0.182-0.005,0.273-0.016  c1.273-0.149,2.185-1.302,2.036-2.576c-0.804-6.853-1.211-13.848-1.211-20.791c0-20.534,3.491-40.652,10.376-59.794  C131.792,236.479,131.166,235.149,129.959,234.715z M429.442,425.433c-33.503,37.512-81.544,59.026-131.803,59.026  c-50.084,0-98.013-21.39-131.496-58.686c-0.857-0.954-2.324-1.033-3.279-0.177s-1.034,2.324-0.177,3.278  c34.362,38.275,83.55,60.228,134.951,60.228c51.579,0,100.882-22.079,135.266-60.576c0.854-0.956,0.772-2.425-0.185-3.278  C431.763,424.392,430.296,424.478,429.442,425.433z M475.937,313.404c-1.271-0.13-2.415,0.8-2.544,2.076  c-1.198,11.846-3.604,23.592-7.154,34.913c-0.383,1.224,0.299,2.526,1.521,2.91c0.231,0.072,0.465,0.107,0.696,0.107  c0.987,0,1.903-0.636,2.215-1.629c3.643-11.621,6.112-23.678,7.342-35.835C478.142,314.672,477.213,313.533,475.937,313.404z   M470.054,241.253c-0.396-1.218-1.705-1.886-2.928-1.488c-1.219,0.397-1.885,1.708-1.488,2.927  c5.747,17.631,8.66,36.064,8.66,54.787c0,1.283,1.04,2.322,2.322,2.322c1.281,0,2.321-1.039,2.321-2.322  C478.941,278.268,475.952,259.35,470.054,241.253z M297.64,116.178c-35.701,0-70.244,10.366-99.893,29.979  c-1.07,0.708-1.363,2.148-0.656,3.217c0.707,1.069,2.147,1.362,3.217,0.656c28.888-19.108,62.544-29.208,97.332-29.208  c69.795,0,133.2,41.227,161.534,105.03c0.385,0.866,1.233,1.38,2.123,1.38c0.315,0,0.635-0.064,0.941-0.201  c1.172-0.521,1.7-1.892,1.181-3.064C434.34,158.488,369.268,116.178,297.64,116.178z" style="fill: #000; fill-opacity: 1;"></path><path fill="#726658" d="M515.003,353.41H80.277c-1.282,0-2.322-1.04-2.322-2.322s1.04-2.322,2.322-2.322h434.726  c1.282,0,2.322,1.04,2.322,2.322S516.285,353.41,515.003,353.41z" style="fill: #000; fill-opacity: 1;"></path><path fill="#726658" d="M499.281,428.455H95.999c-1.283,0-2.322-1.04-2.322-2.322c0-1.281,1.04-2.321,2.322-2.321h403.282  c1.282,0,2.322,1.04,2.322,2.321C501.604,427.415,500.563,428.455,499.281,428.455z" style="fill: #000; fill-opacity: 1;"></path><path fill="#009444" d="M339.207,464.391h-83.133c-1.283,0-2.322,1.04-2.322,2.322c0,1.281,1.04,2.321,2.322,2.321h83.133  c1.281,0,2.321-1.04,2.321-2.321C341.528,465.431,340.488,464.391,339.207,464.391z M373.2,451.884h-151.12  c-1.283,0-2.322,1.04-2.322,2.321c0,1.282,1.04,2.322,2.322,2.322H373.2c1.281,0,2.321-1.04,2.321-2.322  C375.521,452.924,374.481,451.884,373.2,451.884z M391.674,439.377H203.606c-1.283,0-2.322,1.04-2.322,2.321  c0,1.282,1.04,2.322,2.322,2.322h188.067c1.282,0,2.322-1.04,2.322-2.322C393.996,440.417,392.956,439.377,391.674,439.377z" style="fill: #000; fill-opacity: 1;"></path><path fill="#726658" d="M303.94,159.202c1.022,0.775,2.479,0.572,3.253-0.449c0.774-1.021,0.572-2.479-0.449-3.252  c-5.07-3.839-10.612-1.76-14.091,0.775c-4.595-5.798-11.777-5.303-15.273-4.052c-1.208,0.432-1.836,1.761-1.405,2.968  c0.432,1.208,1.761,1.834,2.969,1.405c0.307-0.111,7.576-2.617,11.152,4.25c0.347,0.667,0.995,1.124,1.739,1.227  c0.107,0.015,0.214,0.022,0.32,0.022c0.634,0,1.247-0.26,1.688-0.728C293.898,161.312,299.297,155.686,303.94,159.202z   M321.894,168.852c-6.354-0.5-9.879,4.259-11.434,8.272c-7.001-2.394-12.774,1.91-15.038,4.853c-0.779,1.013-0.59,2.46,0.419,3.245  c0.422,0.328,0.923,0.487,1.42,0.487c0.691,0,1.375-0.307,1.834-0.892c0.507-0.646,5.142-6.205,11.687-2.465  c0.653,0.373,1.446,0.407,2.127,0.091c0.682-0.315,1.169-0.941,1.308-1.68c0.015-0.077,1.52-7.716,7.32-7.283  c1.29,0.104,2.395-0.859,2.493-2.137S323.171,168.95,321.894,168.852z" style="fill: #000; fill-opacity: 1;"></path></svg> <g transform="rotate(0 259.9993896484375 458.8708953857422)"><svg xmlns="http://www.w3.org/2000/svg" y="419" viewBox="-148.67416381835938 -74.68540954589844 299.998779296875 79.74179077148438" x="110" height="79.74179077148438" width="299.998779296875" style="overflow: visible;"><g fill="#000" fill-opacity="1" style=""><path d="M4.03-10.69L6.33-10.69Q6.61-10.69 6.79-10.50Q6.97-10.32 6.97-10.05L6.97-10.05Q6.97-9.79 6.79-9.60Q6.61-9.41 6.33-9.41L6.33-9.41L4.03-9.41Q4.03-3.63 4.05-2.88L4.05-2.88Q4.07-2.07 4.45-1.73Q4.82-1.39 5.42-1.24L5.42-1.24Q5.69-1.17 5.87-0.97Q6.04-0.77 6.04-0.49L6.04-0.49Q6.04-0.21 5.83-0.04Q5.63 0.13 5.35 0.13L5.35 0.13Q4.69 0.13 4.10-0.20Q3.50-0.53 3.14-1.15Q2.77-1.77 2.77-2.58L2.77-2.58Q2.77-6.57 2.75-9.41L2.75-9.41L1.58-9.41Q1.32-9.41 1.13-9.60Q0.94-9.79 0.94-10.05L0.94-10.05Q0.94-10.32 1.13-10.50Q1.32-10.69 1.58-10.69L1.58-10.69L2.75-10.69L2.75-14.46Q2.75-14.72 2.93-14.91Q3.11-15.10 3.39-15.10L3.39-15.10Q3.65-15.10 3.84-14.91Q4.03-14.72 4.03-14.46L4.03-14.46L4.03-10.69Z" transform="translate(-3.028708846082804 0), rotate(46.01483504317658 3.95651754188986 -208.13876155316586)"></path><path d="M6.46-10.79Q7.55-10.79 8.32-10.13Q9.09-9.47 9.09-8.45L9.09-8.45Q9.09-7.70 8.60-7.07Q8.10-6.44 7.36-6.12L7.36-6.12Q7.19-6.08 7.10-6.08L7.10-6.08Q6.85-6.08 6.65-6.26Q6.46-6.44 6.46-6.70L6.46-6.70Q6.46-6.91 6.58-7.07Q6.70-7.23 6.87-7.32L6.87-7.32Q7.23-7.44 7.52-7.77Q7.81-8.10 7.81-8.45L7.81-8.45Q7.81-8.96 7.41-9.27Q7.02-9.58 6.46-9.58L6.46-9.58L3.50-9.58Q3.78-8.96 3.78-8.28L3.78-8.28L3.71-5.50Q3.60-0.45 3.60-0.34L3.60-0.34Q3.58-0.09 3.40 0.11Q3.22 0.30 2.96 0.30L2.96 0.30Q2.69 0.30 2.51 0.11Q2.32-0.09 2.32-0.34L2.32-0.34Q2.32-0.47 2.43-5.48L2.43-5.48L2.50-8.25Q2.50-8.70 2.29-9.09Q2.09-9.47 1.81-9.60L1.81-9.60Q1.30-9.94 1.30-10.26L1.30-10.26Q1.30-10.49 1.47-10.64Q1.64-10.79 1.90-10.79L1.90-10.79L6.46-10.79Z" transform="translate(-4.116484558408318 0), rotate(43.690678278839734 5.193595802965936 -208.13876155316586)"></path><path d="M10.37-0.83Q11.01-0.73 11.01-0.23L11.01-0.23Q11.01 0.02 10.80 0.21Q10.60 0.41 10.32 0.41L10.32 0.41Q9.58 0.41 8.99-0.03Q8.40-0.47 8.25-1.28L8.25-1.28Q8.10-2.03 8.10-3.46L8.10-3.46Q8.10-4.20 8.19-5.78L8.19-5.78Q7.27-5.14 5.82-4.65L5.82-4.65Q4.20-4.14 3.38-3.59Q2.56-3.05 2.56-2.20L2.56-2.20Q2.56-1.58 3.02-1.18Q3.48-0.79 4.20-0.79L4.20-0.79Q4.71-0.79 5.25-1.11Q5.78-1.43 6.21-2.03L6.21-2.03Q6.36-2.22 6.68-2.22L6.68-2.22Q6.95-2.22 7.12-2.04Q7.29-1.86 7.29-1.60L7.29-1.60Q7.29-1.37 7.15-1.17L7.15-1.17Q5.87 0.47 4.20 0.47L4.20 0.47Q2.94 0.47 2.12-0.26Q1.30-0.98 1.30-2.13L1.30-2.13Q1.30-3.46 2.44-4.30Q3.58-5.14 5.50-5.78L5.50-5.78Q6.80-6.19 7.52-6.60Q8.23-7.02 8.32-7.66L8.32-7.66Q8.34-7.70 8.34-7.81L8.34-7.81L8.34-7.83L8.34-8.02Q8.34-8.83 7.73-9.31Q7.12-9.79 5.95-9.79L5.95-9.79Q4.93-9.79 4.20-9.43Q3.48-9.06 3.14-8.36L3.14-8.36Q3.05-8.21 2.90-8.10Q2.75-8.00 2.58-8.00L2.58-8.00Q2.30-8.00 2.11-8.19Q1.92-8.38 1.92-8.64L1.92-8.64Q1.92-9.26 2.55-9.81Q3.18-10.37 4.13-10.70Q5.08-11.03 5.95-11.03L5.95-11.03Q7.64-11.03 8.62-10.21Q9.60-9.38 9.60-8.00L9.60-8.00L9.60-7.68Q9.38-4.59 9.38-3.35L9.38-3.35Q9.38-2.43 9.51-1.62L9.51-1.62Q9.60-1.28 9.84-1.07Q10.09-0.85 10.37-0.83L10.37-0.83Z" transform="translate(-4.926984108768505 0), rotate(40.74905897114175 6.153397902076683 -208.13876155316586)"></path><path d="M10.64-10.90Q10.90-10.90 11.08-10.72Q11.26-10.54 11.28-10.28L11.28-10.28Q11.28-10.13 11.22-10.00L11.22-10.00L6.63-0.02Q6.44 0.41 6.10 0.41L6.10 0.41Q5.95 0.41 5.80 0.29Q5.65 0.17 5.57-0.04L5.57-0.04L1.09-9.98Q1.02-10.11 1.02-10.26L1.02-10.26Q1.05-10.52 1.23-10.70Q1.41-10.88 1.66-10.88L1.66-10.88Q2.07-10.88 2.24-10.49L2.24-10.49L6.16-1.73L10.07-10.52Q10.24-10.90 10.64-10.90L10.64-10.90Z" transform="translate(-5.001635383143785 0), rotate(37.519521735921444 6.153397902076684 -208.13876155316586)"></path><path d="M10.52-2.37Q10.79-2.37 10.95-2.20Q11.11-2.03 11.11-1.77L11.11-1.77Q11.11-1.54 10.94-1.30L10.94-1.30Q10.32-0.55 9.10-0.12Q7.87 0.32 6.44 0.32L6.44 0.32Q4.91 0.32 3.67-0.37Q2.43-1.07 1.73-2.30Q1.02-3.54 1.02-5.10L1.02-5.10Q1.02-6.74 1.76-8.07Q2.50-9.41 3.76-10.17Q5.03-10.94 6.59-10.94L6.59-10.94Q7.81-10.94 8.76-10.53Q9.70-10.11 10.24-9.37Q10.77-8.64 10.77-7.74L10.77-7.74Q10.77-6.48 9.63-5.71Q8.49-4.93 6.61-4.93L6.61-4.93Q5.37-4.93 4.23-5.26Q3.09-5.59 2.41-6.12L2.41-6.12Q2.30-5.52 2.30-5.01L2.30-5.01Q2.30-3.84 2.84-2.91Q3.37-1.98 4.31-1.47Q5.25-0.96 6.44-0.96L6.44-0.96Q7.70-0.96 8.62-1.27Q9.53-1.58 10.00-2.18L10.00-2.18Q10.20-2.37 10.52-2.37L10.52-2.37ZM6.59-9.66Q5.33-9.66 4.33-9.04Q3.33-8.42 2.79-7.32L2.79-7.32Q3.39-6.83 4.40-6.48Q5.42-6.14 6.61-6.14L6.61-6.14Q7.93-6.14 8.71-6.57Q9.49-7.00 9.49-7.70L9.49-7.70Q9.49-8.53 8.68-9.10Q7.87-9.66 6.59-9.66L6.59-9.66Z" transform="translate(-5.214924738501729 0), rotate(34.19632445198905 6.068082159933505 -208.13876155316586)"></path><path d="M3.24-18.28Q3.20-16.89 3.07-2.30L3.07-2.30Q3.07-1.90 3.27-1.46Q3.48-1.02 3.71-0.90L3.71-0.90Q3.97-0.73 4.11-0.59Q4.24-0.45 4.24-0.26L4.24-0.26Q4.24 0.02 4.03 0.17Q3.82 0.32 3.54 0.32L3.54 0.32Q2.79 0.32 2.29-0.36Q1.79-1.05 1.79-2.22L1.79-2.22Q1.79-5.63 1.86-11.65Q1.92-17.66 1.96-18.28L1.96-18.28Q1.98-18.60 2.14-18.79Q2.30-18.98 2.58-18.98L2.58-18.98Q2.90-18.98 3.07-18.77Q3.24-18.56 3.24-18.28L3.24-18.28Z" transform="translate(-1.8022950527746264 0), rotate(31.913794375968678 3.018044378314907 -208.13876155316586)"></path><path d="" transform="translate(-2.6981103452779913 0), rotate(30.449922503505768 0 -208.13876155316586)"></path><path d="M4.03-10.69L6.33-10.69Q6.61-10.69 6.79-10.50Q6.97-10.32 6.97-10.05L6.97-10.05Q6.97-9.79 6.79-9.60Q6.61-9.41 6.33-9.41L6.33-9.41L4.03-9.41Q4.03-3.63 4.05-2.88L4.05-2.88Q4.07-2.07 4.45-1.73Q4.82-1.39 5.42-1.24L5.42-1.24Q5.69-1.17 5.87-0.97Q6.04-0.77 6.04-0.49L6.04-0.49Q6.04-0.21 5.83-0.04Q5.63 0.13 5.35 0.13L5.35 0.13Q4.69 0.13 4.10-0.20Q3.50-0.53 3.14-1.15Q2.77-1.77 2.77-2.58L2.77-2.58Q2.77-6.57 2.75-9.41L2.75-9.41L1.58-9.41Q1.32-9.41 1.13-9.60Q0.94-9.79 0.94-10.05L0.94-10.05Q0.94-10.32 1.13-10.50Q1.32-10.69 1.58-10.69L1.58-10.69L2.75-10.69L2.75-14.46Q2.75-14.72 2.93-14.91Q3.11-15.10 3.39-15.10L3.39-15.10Q3.65-15.10 3.84-14.91Q4.03-14.72 4.03-14.46L4.03-14.46L4.03-10.69Z" transform="translate(-3.028708846082804 0), rotate(28.587128201343248 3.95651754188986 -208.13876155316586)"></path><path d="M6.27 0.28Q4.74 0.28 3.54-0.46Q2.35-1.19 1.68-2.48Q1.02-3.78 1.02-5.37L1.02-5.37Q1.02-6.97 1.68-8.25Q2.35-9.53 3.54-10.27Q4.74-11.01 6.27-11.01L6.27-11.01Q7.79-11.01 8.97-10.27Q10.15-9.53 10.81-8.25Q11.47-6.97 11.47-5.37L11.47-5.37Q11.47-3.78 10.81-2.48Q10.15-1.19 8.97-0.46Q7.79 0.28 6.27 0.28L6.27 0.28ZM6.27-1.00Q7.42-1.00 8.32-1.57Q9.21-2.13 9.70-3.12Q10.20-4.12 10.20-5.37L10.20-5.37Q10.20-6.61 9.70-7.60Q9.21-8.60 8.32-9.16Q7.42-9.73 6.27-9.73L6.27-9.73Q5.10-9.73 4.19-9.16Q3.28-8.60 2.79-7.60Q2.30-6.61 2.30-5.37L2.30-5.37Q2.30-4.12 2.79-3.12Q3.28-2.13 4.19-1.57Q5.10-1.00 6.27-1.00L6.27-1.00Z" transform="translate(-5.396220690555982 0), rotate(25.84670455384159 6.249378111987758 -208.13876155316586)"></path><path d="M11.50-10.64Q11.71-10.60 11.86-10.42Q12.01-10.24 12.01-9.98L12.01-9.98Q12.01-9.73 11.86-9.57Q11.71-9.41 11.45-9.41L11.45-9.41Q11.33-9.41 11.24-9.45L11.24-9.45Q11.20-9.47 10.88-9.47L10.88-9.47Q10.22-9.45 9.73-8.96L9.73-8.96Q10.39-7.93 10.39-6.65L10.39-6.65Q10.39-5.48 9.82-4.52Q9.26-3.56 8.26-2.99Q7.27-2.41 6.04-2.37L6.04-2.37Q5.46-2.37 5.02-2.04Q4.59-1.71 4.59-1.34L4.59-1.34Q4.59-1.00 5.00-0.75Q5.42-0.49 6.23-0.38L6.23-0.38Q7.91-0.17 8.87 0.16Q9.83 0.49 10.27 1.07Q10.71 1.64 10.71 2.58L10.71 2.58Q10.71 3.65 10.06 4.46Q9.41 5.27 8.29 5.71Q7.17 6.14 5.78 6.14L5.78 6.14Q4.22 6.14 2.92 5.47Q1.62 4.80 0.90 3.58L0.90 3.58Q0.81 3.48 0.81 3.24L0.81 3.24Q0.81 2.99 0.99 2.82Q1.17 2.64 1.45 2.64L1.45 2.64Q1.60 2.64 1.74 2.73Q1.88 2.82 1.94 2.92L1.94 2.92Q2.45 3.78 3.52 4.33Q4.59 4.88 5.82 4.88L5.82 4.88Q7.38 4.88 8.44 4.27Q9.49 3.65 9.49 2.60L9.49 2.60Q9.49 2.03 9.16 1.70Q8.83 1.37 8.16 1.17Q7.49 0.98 6.23 0.79L6.23 0.79Q4.67 0.53 3.94 0.03Q3.20-0.47 3.20-1.26L3.20-1.26Q3.20-2.13 4.16-2.64L4.16-2.64Q2.82-3.07 2.02-4.16Q1.22-5.25 1.22-6.65L1.22-6.65Q1.22-7.87 1.81-8.87Q2.41-9.88 3.47-10.44Q4.52-11.01 5.82-11.01L5.82-11.01Q6.74-11.01 7.54-10.71Q8.34-10.41 8.96-9.88L8.96-9.88Q9.36-10.28 9.90-10.50Q10.43-10.73 10.96-10.73L10.96-10.73Q11.16-10.73 11.50-10.64L11.50-10.64ZM5.82-3.63Q6.74-3.63 7.50-4.02Q8.25-4.42 8.68-5.11Q9.11-5.80 9.11-6.65L9.11-6.65Q9.11-7.51 8.68-8.22Q8.25-8.94 7.50-9.34Q6.74-9.75 5.82-9.75L5.82-9.75Q4.88-9.75 4.12-9.34Q3.35-8.94 2.92-8.23Q2.50-7.53 2.50-6.65L2.50-6.65Q2.50-5.80 2.92-5.11Q3.35-4.42 4.12-4.02Q4.88-3.63 5.82-3.63L5.82-3.63Z" transform="translate(-5.36422728725229 0), rotate(22.346593844564158 6.4093451285062155 -208.13876155316586)"></path><path d="M10.52-2.37Q10.79-2.37 10.95-2.20Q11.11-2.03 11.11-1.77L11.11-1.77Q11.11-1.54 10.94-1.30L10.94-1.30Q10.32-0.55 9.10-0.12Q7.87 0.32 6.44 0.32L6.44 0.32Q4.91 0.32 3.67-0.37Q2.43-1.07 1.73-2.30Q1.02-3.54 1.02-5.10L1.02-5.10Q1.02-6.74 1.76-8.07Q2.50-9.41 3.76-10.17Q5.03-10.94 6.59-10.94L6.59-10.94Q7.81-10.94 8.76-10.53Q9.70-10.11 10.24-9.37Q10.77-8.64 10.77-7.74L10.77-7.74Q10.77-6.48 9.63-5.71Q8.49-4.93 6.61-4.93L6.61-4.93Q5.37-4.93 4.23-5.26Q3.09-5.59 2.41-6.12L2.41-6.12Q2.30-5.52 2.30-5.01L2.30-5.01Q2.30-3.84 2.84-2.91Q3.37-1.98 4.31-1.47Q5.25-0.96 6.44-0.96L6.44-0.96Q7.70-0.96 8.62-1.27Q9.53-1.58 10.00-2.18L10.00-2.18Q10.20-2.37 10.52-2.37L10.52-2.37ZM6.59-9.66Q5.33-9.66 4.33-9.04Q3.33-8.42 2.79-7.32L2.79-7.32Q3.39-6.83 4.40-6.48Q5.42-6.14 6.61-6.14L6.61-6.14Q7.93-6.14 8.71-6.57Q9.49-7.00 9.49-7.70L9.49-7.70Q9.49-8.53 8.68-9.10Q7.87-9.66 6.59-9.66L6.59-9.66Z" transform="translate(-5.214924738501729 0), rotate(18.905454277068404 6.068082159933505 -208.13876155316586)"></path><path d="M4.03-10.69L6.33-10.69Q6.61-10.69 6.79-10.50Q6.97-10.32 6.97-10.05L6.97-10.05Q6.97-9.79 6.79-9.60Q6.61-9.41 6.33-9.41L6.33-9.41L4.03-9.41Q4.03-3.63 4.05-2.88L4.05-2.88Q4.07-2.07 4.45-1.73Q4.82-1.39 5.42-1.24L5.42-1.24Q5.69-1.17 5.87-0.97Q6.04-0.77 6.04-0.49L6.04-0.49Q6.04-0.21 5.83-0.04Q5.63 0.13 5.35 0.13L5.35 0.13Q4.69 0.13 4.10-0.20Q3.50-0.53 3.14-1.15Q2.77-1.77 2.77-2.58L2.77-2.58Q2.77-6.57 2.75-9.41L2.75-9.41L1.58-9.41Q1.32-9.41 1.13-9.60Q0.94-9.79 0.94-10.05L0.94-10.05Q0.94-10.32 1.13-10.50Q1.32-10.69 1.58-10.69L1.58-10.69L2.75-10.69L2.75-14.46Q2.75-14.72 2.93-14.91Q3.11-15.10 3.39-15.10L3.39-15.10Q3.65-15.10 3.84-14.91Q4.03-14.72 4.03-14.46L4.03-14.46L4.03-10.69Z" transform="translate(-3.028708846082804 0), rotate(16.224001771348426 3.95651754188986 -208.13876155316586)"></path><path d="M11.41-0.90Q11.67-0.73 11.81-0.59Q11.94-0.45 11.94-0.26L11.94-0.26Q11.94 0.02 11.73 0.17Q11.52 0.32 11.22 0.32L11.22 0.32Q10.47 0.32 9.99-0.35Q9.51-1.02 9.51-2.18L9.51-2.18L9.53-6.70Q9.53-8.08 8.77-8.88Q8.00-9.68 6.68-9.68L6.68-9.68Q5.40-9.68 4.61-8.84Q3.82-8.00 3.63-6.63L3.63-6.63L3.54-0.47Q3.54-0.21 3.35-0.02Q3.16 0.17 2.90 0.17L2.90 0.17Q2.62 0.17 2.44-0.02Q2.26-0.21 2.26-0.47L2.26-0.47L2.47-16.47Q2.47-16.87 2.27-17.31Q2.07-17.75 1.83-17.87L1.83-17.87Q1.58-18.04 1.44-18.18Q1.30-18.32 1.30-18.51L1.30-18.51Q1.30-18.79 1.51-18.94Q1.73-19.09 2.00-19.09L2.00-19.09Q2.75-19.09 3.25-18.40Q3.75-17.70 3.75-16.53L3.75-16.53Q3.75-15.63 3.71-12.86L3.71-12.86Q3.67-10.60 3.67-9.32L3.67-9.32Q4.22-10.09 5.01-10.50Q5.80-10.92 6.68-10.92L6.68-10.92Q8.55-10.92 9.68-9.81Q10.81-8.70 10.81-6.89L10.81-6.89L10.79-2.26Q10.79-1.86 10.98-1.44Q11.18-1.02 11.41-0.90L11.41-0.90Z" transform="translate(-5.545523239306543 0), rotate(13.435013654144207 6.62263448386416 -208.13876155316586)"></path><path d="M10.52-2.37Q10.79-2.37 10.95-2.20Q11.11-2.03 11.11-1.77L11.11-1.77Q11.11-1.54 10.94-1.30L10.94-1.30Q10.32-0.55 9.10-0.12Q7.87 0.32 6.44 0.32L6.44 0.32Q4.91 0.32 3.67-0.37Q2.43-1.07 1.73-2.30Q1.02-3.54 1.02-5.10L1.02-5.10Q1.02-6.74 1.76-8.07Q2.50-9.41 3.76-10.17Q5.03-10.94 6.59-10.94L6.59-10.94Q7.81-10.94 8.76-10.53Q9.70-10.11 10.24-9.37Q10.77-8.64 10.77-7.74L10.77-7.74Q10.77-6.48 9.63-5.71Q8.49-4.93 6.61-4.93L6.61-4.93Q5.37-4.93 4.23-5.26Q3.09-5.59 2.41-6.12L2.41-6.12Q2.30-5.52 2.30-5.01L2.30-5.01Q2.30-3.84 2.84-2.91Q3.37-1.98 4.31-1.47Q5.25-0.96 6.44-0.96L6.44-0.96Q7.70-0.96 8.62-1.27Q9.53-1.58 10.00-2.18L10.00-2.18Q10.20-2.37 10.52-2.37L10.52-2.37ZM6.59-9.66Q5.33-9.66 4.33-9.04Q3.33-8.42 2.79-7.32L2.79-7.32Q3.39-6.83 4.40-6.48Q5.42-6.14 6.61-6.14L6.61-6.14Q7.93-6.14 8.71-6.57Q9.49-7.00 9.49-7.70L9.49-7.70Q9.49-8.53 8.68-9.10Q7.87-9.66 6.59-9.66L6.59-9.66Z" transform="translate(-5.214924738501729 0), rotate(9.93490294486677 6.068082159933505 -208.13876155316586)"></path><path d="M6.46-10.79Q7.55-10.79 8.32-10.13Q9.09-9.47 9.09-8.45L9.09-8.45Q9.09-7.70 8.60-7.07Q8.10-6.44 7.36-6.12L7.36-6.12Q7.19-6.08 7.10-6.08L7.10-6.08Q6.85-6.08 6.65-6.26Q6.46-6.44 6.46-6.70L6.46-6.70Q6.46-6.91 6.58-7.07Q6.70-7.23 6.87-7.32L6.87-7.32Q7.23-7.44 7.52-7.77Q7.81-8.10 7.81-8.45L7.81-8.45Q7.81-8.96 7.41-9.27Q7.02-9.58 6.46-9.58L6.46-9.58L3.50-9.58Q3.78-8.96 3.78-8.28L3.78-8.28L3.71-5.50Q3.60-0.45 3.60-0.34L3.60-0.34Q3.58-0.09 3.40 0.11Q3.22 0.30 2.96 0.30L2.96 0.30Q2.69 0.30 2.51 0.11Q2.32-0.09 2.32-0.34L2.32-0.34Q2.32-0.47 2.43-5.48L2.43-5.48L2.50-8.25Q2.50-8.70 2.29-9.09Q2.09-9.47 1.81-9.60L1.81-9.60Q1.30-9.94 1.30-10.26L1.30-10.26Q1.30-10.49 1.47-10.64Q1.64-10.79 1.90-10.79L1.90-10.79L6.46-10.79Z" transform="translate(-4.116484558408318 0), rotate(6.899623588456713 5.193595802965936 -208.13876155316586)"></path><path d="M2.58 2.07Q2.28 2.07 2.28 1.81L2.28 1.81Q2.28 1.60 2.58 1.51L2.58 1.51Q2.77 1.47 2.95 1.24Q3.14 1.00 3.14 0.62L3.14 0.62Q3.14 0.06 2.64-0.19L2.64-0.19Q2.11-0.45 2.11-1.09L2.11-1.09Q2.11-1.47 2.40-1.75Q2.69-2.03 3.11-2.03L3.11-2.03Q3.63-2.03 3.99-1.60Q4.35-1.17 4.35-0.43L4.35-0.43Q4.35 0.41 4.06 0.96Q3.78 1.51 3.36 1.79Q2.94 2.07 2.58 2.07L2.58 2.07Z" transform="translate(-2.858077361796449 0), rotate(4.6309690752084975 3.2313337336728507 -208.13876155316586)"></path><path d="" transform="translate(-2.6981103452779913 0), rotate(2.823677024134625 0 -208.13876155316586)"></path><path d="M10.52-2.37Q10.79-2.37 10.95-2.20Q11.11-2.03 11.11-1.77L11.11-1.77Q11.11-1.54 10.94-1.30L10.94-1.30Q10.32-0.55 9.10-0.12Q7.87 0.32 6.44 0.32L6.44 0.32Q4.91 0.32 3.67-0.37Q2.43-1.07 1.73-2.30Q1.02-3.54 1.02-5.10L1.02-5.10Q1.02-6.74 1.76-8.07Q2.50-9.41 3.76-10.17Q5.03-10.94 6.59-10.94L6.59-10.94Q7.81-10.94 8.76-10.53Q9.70-10.11 10.24-9.37Q10.77-8.64 10.77-7.74L10.77-7.74Q10.77-6.48 9.63-5.71Q8.49-4.93 6.61-4.93L6.61-4.93Q5.37-4.93 4.23-5.26Q3.09-5.59 2.41-6.12L2.41-6.12Q2.30-5.52 2.30-5.01L2.30-5.01Q2.30-3.84 2.84-2.91Q3.37-1.98 4.31-1.47Q5.25-0.96 6.44-0.96L6.44-0.96Q7.70-0.96 8.62-1.27Q9.53-1.58 10.00-2.18L10.00-2.18Q10.20-2.37 10.52-2.37L10.52-2.37ZM6.59-9.66Q5.33-9.66 4.33-9.04Q3.33-8.42 2.79-7.32L2.79-7.32Q3.39-6.83 4.40-6.48Q5.42-6.14 6.61-6.14L6.61-6.14Q7.93-6.14 8.71-6.57Q9.49-7.00 9.49-7.70L9.49-7.70Q9.49-8.53 8.68-9.10Q7.87-9.66 6.59-9.66L6.59-9.66Z" transform="translate(-5.214924738501729 0), rotate(0.2497601298988883 6.068082159933505 -208.13876155316586)"></path><path d="M10.13-9.83L6.55-5.42L10.13-0.85Q10.26-0.70 10.26-0.45L10.26-0.45Q10.26-0.19 10.08 0Q9.90 0.19 9.62 0.19L9.62 0.19Q9.49 0.19 9.34 0.12Q9.19 0.04 9.11-0.06L9.11-0.06L5.69-4.39L2.15-0.04Q1.90 0.21 1.64 0.21L1.64 0.21Q1.37 0.21 1.18 0.02Q1.00-0.17 1.00-0.43L1.00-0.43Q1.00-0.68 1.13-0.81L1.13-0.81L4.91-5.44L1.41-9.88Q1.28-10.05 1.28-10.26L1.28-10.26Q1.28-10.54 1.46-10.72Q1.64-10.90 1.92-10.90L1.92-10.90Q2.20-10.90 2.43-10.66L2.43-10.66L5.74-6.46L9.11-10.60Q9.34-10.86 9.62-10.86L9.62-10.86Q9.90-10.86 10.08-10.68Q10.26-10.49 10.26-10.22L10.26-10.22Q10.26-10.00 10.13-9.83L10.13-9.83Z" transform="translate(-4.777681560017944 0), rotate(-3.0005904494796596 5.63083898144972 -208.13876155316586)"></path><path d="M7.70-11.16Q9.21-11.16 10.45-10.42Q11.69-9.68 12.39-8.40Q13.10-7.12 13.10-5.55L13.10-5.55Q13.10-3.90 12.39-2.57Q11.69-1.24 10.45-0.48Q9.21 0.28 7.68 0.28L7.68 0.28Q6.44 0.28 5.41-0.35Q4.37-0.98 3.69-2.07L3.69-2.07Q3.60 4.69 3.58 5.33L3.58 5.33Q3.58 5.59 3.40 5.78Q3.22 5.97 2.92 5.97L2.92 5.97Q2.67 5.97 2.48 5.78Q2.30 5.59 2.30 5.33L2.30 5.33L2.47-8.36Q2.47-8.77 2.27-9.20Q2.07-9.64 1.83-9.77L1.83-9.77Q1.58-9.94 1.44-10.08Q1.30-10.22 1.30-10.41L1.30-10.41Q1.30-10.69 1.51-10.84Q1.73-10.98 2.00-10.98L2.00-10.98Q2.67-10.98 3.15-10.44Q3.63-9.90 3.73-8.94L3.73-8.94Q4.42-9.96 5.45-10.56Q6.48-11.16 7.70-11.16L7.70-11.16ZM7.68-1.00Q8.85-1.00 9.79-1.60Q10.73-2.20 11.27-3.23Q11.82-4.27 11.82-5.55L11.82-5.55Q11.82-6.78 11.27-7.76Q10.73-8.74 9.79-9.31Q8.85-9.88 7.68-9.88L7.68-9.88Q6.55-9.88 5.65-9.31Q4.76-8.74 4.24-7.76Q3.73-6.78 3.73-5.55L3.73-5.55Q3.73-4.24 4.24-3.21Q4.76-2.18 5.65-1.59Q6.55-1.00 7.68-1.00L7.68-1.00Z" transform="translate(-6.206720240916169 0), rotate(-6.573547863310928 7.198515743330608 -208.13876155316586)"></path><path d="M10.52-2.37Q10.79-2.37 10.95-2.20Q11.11-2.03 11.11-1.77L11.11-1.77Q11.11-1.54 10.94-1.30L10.94-1.30Q10.32-0.55 9.10-0.12Q7.87 0.32 6.44 0.32L6.44 0.32Q4.91 0.32 3.67-0.37Q2.43-1.07 1.73-2.30Q1.02-3.54 1.02-5.10L1.02-5.10Q1.02-6.74 1.76-8.07Q2.50-9.41 3.76-10.17Q5.03-10.94 6.59-10.94L6.59-10.94Q7.81-10.94 8.76-10.53Q9.70-10.11 10.24-9.37Q10.77-8.64 10.77-7.74L10.77-7.74Q10.77-6.48 9.63-5.71Q8.49-4.93 6.61-4.93L6.61-4.93Q5.37-4.93 4.23-5.26Q3.09-5.59 2.41-6.12L2.41-6.12Q2.30-5.52 2.30-5.01L2.30-5.01Q2.30-3.84 2.84-2.91Q3.37-1.98 4.31-1.47Q5.25-0.96 6.44-0.96L6.44-0.96Q7.70-0.96 8.62-1.27Q9.53-1.58 10.00-2.18L10.00-2.18Q10.20-2.37 10.52-2.37L10.52-2.37ZM6.59-9.66Q5.33-9.66 4.33-9.04Q3.33-8.42 2.79-7.32L2.79-7.32Q3.39-6.83 4.40-6.48Q5.42-6.14 6.61-6.14L6.61-6.14Q7.93-6.14 8.71-6.57Q9.49-7.00 9.49-7.70L9.49-7.70Q9.49-8.53 8.68-9.10Q7.87-9.66 6.59-9.66L6.59-9.66Z" transform="translate(-5.214924738501729 0), rotate(-10.288729795556854 6.068082159933505 -208.13876155316586)"></path><path d="M6.46-10.79Q7.55-10.79 8.32-10.13Q9.09-9.47 9.09-8.45L9.09-8.45Q9.09-7.70 8.60-7.07Q8.10-6.44 7.36-6.12L7.36-6.12Q7.19-6.08 7.10-6.08L7.10-6.08Q6.85-6.08 6.65-6.26Q6.46-6.44 6.46-6.70L6.46-6.70Q6.46-6.91 6.58-7.07Q6.70-7.23 6.87-7.32L6.87-7.32Q7.23-7.44 7.52-7.77Q7.81-8.10 7.81-8.45L7.81-8.45Q7.81-8.96 7.41-9.27Q7.02-9.58 6.46-9.58L6.46-9.58L3.50-9.58Q3.78-8.96 3.78-8.28L3.78-8.28L3.71-5.50Q3.60-0.45 3.60-0.34L3.60-0.34Q3.58-0.09 3.40 0.11Q3.22 0.30 2.96 0.30L2.96 0.30Q2.69 0.30 2.51 0.11Q2.32-0.09 2.32-0.34L2.32-0.34Q2.32-0.47 2.43-5.48L2.43-5.48L2.50-8.25Q2.50-8.70 2.29-9.09Q2.09-9.47 1.81-9.60L1.81-9.60Q1.30-9.94 1.30-10.26L1.30-10.26Q1.30-10.49 1.47-10.64Q1.64-10.79 1.90-10.79L1.90-10.79L6.46-10.79Z" transform="translate(-4.116484558408318 0), rotate(-13.324009151966912 5.193595802965936 -208.13876155316586)"></path><path d="M3.26-14.18Q2.84-14.18 2.56-14.46Q2.28-14.74 2.28-15.14L2.28-15.14Q2.28-15.53 2.57-15.80Q2.86-16.08 3.26-16.08L3.26-16.08Q3.65-16.08 3.91-15.82Q4.18-15.55 4.18-15.14L4.18-15.14Q4.18-14.74 3.91-14.46Q3.65-14.18 3.26-14.18L3.26-14.18ZM3.26 0.26Q3.01 0.26 2.82 0.07Q2.62-0.11 2.62-0.36L2.62-0.36L2.69-4.76L2.75-8.36Q2.77-8.77 2.58-9.20Q2.39-9.64 2.15-9.77L2.15-9.77Q1.90-9.94 1.76-10.07Q1.62-10.20 1.62-10.39L1.62-10.39Q1.62-10.66 1.83-10.82Q2.05-10.98 2.32-10.98L2.32-10.98Q3.07-10.98 3.55-10.31Q4.03-9.64 4.03-8.51L4.03-8.51Q4.03-7.36 4.00-5.37Q3.97-3.39 3.95-2.35L3.95-2.35L3.90-0.36Q3.90-0.09 3.71 0.09Q3.52 0.26 3.26 0.26L3.26 0.26Z" transform="translate(-2.2182092957226174 0), rotate(-15.384530223632723 2.900735232868038 -208.13876155316586)"></path><path d="M10.52-2.37Q10.79-2.37 10.95-2.20Q11.11-2.03 11.11-1.77L11.11-1.77Q11.11-1.54 10.94-1.30L10.94-1.30Q10.32-0.55 9.10-0.12Q7.87 0.32 6.44 0.32L6.44 0.32Q4.91 0.32 3.67-0.37Q2.43-1.07 1.73-2.30Q1.02-3.54 1.02-5.10L1.02-5.10Q1.02-6.74 1.76-8.07Q2.50-9.41 3.76-10.17Q5.03-10.94 6.59-10.94L6.59-10.94Q7.81-10.94 8.76-10.53Q9.70-10.11 10.24-9.37Q10.77-8.64 10.77-7.74L10.77-7.74Q10.77-6.48 9.63-5.71Q8.49-4.93 6.61-4.93L6.61-4.93Q5.37-4.93 4.23-5.26Q3.09-5.59 2.41-6.12L2.41-6.12Q2.30-5.52 2.30-5.01L2.30-5.01Q2.30-3.84 2.84-2.91Q3.37-1.98 4.31-1.47Q5.25-0.96 6.44-0.96L6.44-0.96Q7.70-0.96 8.62-1.27Q9.53-1.58 10.00-2.18L10.00-2.18Q10.20-2.37 10.52-2.37L10.52-2.37ZM6.59-9.66Q5.33-9.66 4.33-9.04Q3.33-8.42 2.79-7.32L2.79-7.32Q3.39-6.83 4.40-6.48Q5.42-6.14 6.61-6.14L6.61-6.14Q7.93-6.14 8.71-6.57Q9.49-7.00 9.49-7.70L9.49-7.70Q9.49-8.53 8.68-9.10Q7.87-9.66 6.59-9.66L6.59-9.66Z" transform="translate(-5.214924738501729 0), rotate(-17.802347036681645 6.068082159933505 -208.13876155316586)"></path><path d="M11.47-0.90Q11.73-0.73 11.87-0.59Q12.01-0.45 12.01-0.26L12.01-0.26Q12.01 0.02 11.79 0.17Q11.58 0.32 11.30 0.32L11.30 0.32Q10.56 0.32 10.07-0.37Q9.58-1.07 9.58-2.24L9.58-2.24L9.60-5.03Q9.62-5.69 9.62-6.70L9.62-6.70Q9.62-8.08 8.84-8.88Q8.06-9.68 6.74-9.68L6.74-9.68Q5.42-9.68 4.61-8.77Q3.80-7.85 3.69-6.44L3.69-6.44L3.69-6.46Q3.58-2.30 3.58-0.55L3.58-0.55Q3.58-0.26 3.39-0.09Q3.20 0.09 2.96 0.09L2.96 0.09Q2.71 0.09 2.51-0.09Q2.30-0.26 2.30-0.55L2.30-0.55L2.37-4.86L2.43-8.36Q2.45-8.77 2.26-9.20Q2.07-9.64 1.83-9.77L1.83-9.77Q1.58-9.94 1.44-10.08Q1.30-10.22 1.30-10.41L1.30-10.41Q1.30-10.69 1.51-10.84Q1.73-10.98 2.00-10.98L2.00-10.98Q2.62-10.98 3.07-10.52Q3.52-10.05 3.65-9.19L3.65-9.19Q4.22-10.02 5.03-10.47Q5.84-10.92 6.74-10.92L6.74-10.92Q8.62-10.92 9.76-9.81Q10.90-8.70 10.90-6.89L10.90-6.89L10.86-2.30Q10.86-1.90 11.05-1.46Q11.24-1.02 11.47-0.90L11.47-0.90Z" transform="translate(-5.588181110378131 0), rotate(-21.316333308731252 6.654627887167852 -208.13876155316586)"></path><path d="M6.31 0.43Q4.86 0.43 3.66-0.32Q2.45-1.07 1.74-2.35Q1.02-3.63 1.02-5.16L1.02-5.16Q1.02-6.80 1.71-8.13Q2.39-9.45 3.58-10.18Q4.78-10.92 6.27-10.92L6.27-10.92Q7.96-10.92 9.09-10.04Q10.22-9.15 10.34-7.74L10.34-7.74L10.34-7.64Q10.34-7.27 10.17-7.09Q10.00-6.91 9.70-6.91L9.70-6.91Q9.47-6.91 9.30-7.08Q9.13-7.25 9.11-7.61L9.11-7.61Q9.02-8.45 8.22-9.04Q7.42-9.64 6.27-9.64L6.27-9.64Q5.16-9.64 4.26-9.06Q3.35-8.49 2.83-7.45Q2.30-6.42 2.30-5.08L2.30-5.08Q2.30-3.90 2.84-2.94Q3.37-1.98 4.30-1.42Q5.23-0.85 6.31-0.85L6.31-0.85Q7.38-0.85 8.28-1.19Q9.17-1.54 9.60-2.07L9.60-2.07Q9.68-2.15 9.82-2.22Q9.96-2.28 10.09-2.28L10.09-2.28Q10.37-2.28 10.55-2.10Q10.73-1.92 10.73-1.64L10.73-1.64Q10.73-1.47 10.56-1.22L10.56-1.22Q10.00-0.49 8.82-0.03Q7.64 0.43 6.31 0.43L6.31 0.43Z" transform="translate(-5.02296431867958 0), rotate(-24.767879548306134 5.876121740111355 -208.13876155316586)"></path><path d="M10.52-2.37Q10.79-2.37 10.95-2.20Q11.11-2.03 11.11-1.77L11.11-1.77Q11.11-1.54 10.94-1.30L10.94-1.30Q10.32-0.55 9.10-0.12Q7.87 0.32 6.44 0.32L6.44 0.32Q4.91 0.32 3.67-0.37Q2.43-1.07 1.73-2.30Q1.02-3.54 1.02-5.10L1.02-5.10Q1.02-6.74 1.76-8.07Q2.50-9.41 3.76-10.17Q5.03-10.94 6.59-10.94L6.59-10.94Q7.81-10.94 8.76-10.53Q9.70-10.11 10.24-9.37Q10.77-8.64 10.77-7.74L10.77-7.74Q10.77-6.48 9.63-5.71Q8.49-4.93 6.61-4.93L6.61-4.93Q5.37-4.93 4.23-5.26Q3.09-5.59 2.41-6.12L2.41-6.12Q2.30-5.52 2.30-5.01L2.30-5.01Q2.30-3.84 2.84-2.91Q3.37-1.98 4.31-1.47Q5.25-0.96 6.44-0.96L6.44-0.96Q7.70-0.96 8.62-1.27Q9.53-1.58 10.00-2.18L10.00-2.18Q10.20-2.37 10.52-2.37L10.52-2.37ZM6.59-9.66Q5.33-9.66 4.33-9.04Q3.33-8.42 2.79-7.32L2.79-7.32Q3.39-6.83 4.40-6.48Q5.42-6.14 6.61-6.14L6.61-6.14Q7.93-6.14 8.71-6.57Q9.49-7.00 9.49-7.70L9.49-7.70Q9.49-8.53 8.68-9.10Q7.87-9.66 6.59-9.66L6.59-9.66Z" transform="translate(-5.214924738501729 0), rotate(-28.098014613624592 6.068082159933505 -208.13876155316586)"></path><path d="" transform="translate(-2.6981103452779913 0), rotate(-30.671931507860343 0 -208.13876155316586)"></path><path d="M18.34-0.83Q18.60-0.68 18.75-0.54Q18.90-0.41 18.90-0.21L18.90-0.21Q18.90 0.06 18.68 0.21Q18.47 0.36 18.17 0.36L18.17 0.36Q17.40 0.36 16.91-0.34Q16.42-1.05 16.44-2.24L16.44-2.24L16.49-6.55Q16.49-8.06 15.82-8.87Q15.14-9.68 13.82-9.68L13.82-9.68Q12.48-9.68 11.67-8.83Q10.86-7.98 10.73-6.65L10.73-6.65Q10.73-5.52 10.71-3.23Q10.69-0.94 10.66-0.53L10.66-0.53Q10.64-0.28 10.45-0.12Q10.26 0.04 10.00 0.04L10.00 0.04Q9.73 0.04 9.56-0.13Q9.38-0.30 9.38-0.53L9.38-0.53Q9.41-1.19 9.43-3.48Q9.45-5.76 9.45-6.80L9.45-6.80Q9.45-8.10 8.76-8.90Q8.06-9.70 6.93-9.70L6.93-9.70Q5.63-9.70 4.76-8.89Q3.88-8.08 3.71-6.85L3.71-6.85L3.58-0.53Q3.58-0.26 3.39-0.09Q3.20 0.09 2.92 0.09L2.92 0.09Q2.67 0.09 2.48-0.10Q2.30-0.28 2.30-0.53L2.30-0.53L2.45-8.36Q2.45-8.77 2.26-9.20Q2.07-9.64 1.83-9.77L1.83-9.77Q1.58-9.94 1.44-10.08Q1.30-10.22 1.30-10.41L1.30-10.41Q1.30-10.69 1.51-10.84Q1.73-10.98 2.00-10.98L2.00-10.98Q2.62-10.98 3.07-10.50Q3.52-10.02 3.67-9.17L3.67-9.17Q4.27-10.02 5.15-10.47Q6.04-10.92 7.00-10.92L7.00-10.92Q8.13-10.92 9.02-10.30Q9.92-9.68 10.34-8.62L10.34-8.62Q10.90-9.73 11.84-10.32Q12.78-10.92 13.89-10.92L13.89-10.92Q15.74-10.92 16.75-9.78Q17.77-8.64 17.77-6.59L17.77-6.59L17.72-2.26Q17.72-1.86 17.92-1.41Q18.11-0.96 18.34-0.83L18.34-0.83Z" transform="translate(-9.02213973164103 0), rotate(-34.48424237951138 10.099250976198647 -208.13876155316586)"></path><path d="M6.27 0.28Q4.74 0.28 3.54-0.46Q2.35-1.19 1.68-2.48Q1.02-3.78 1.02-5.37L1.02-5.37Q1.02-6.97 1.68-8.25Q2.35-9.53 3.54-10.27Q4.74-11.01 6.27-11.01L6.27-11.01Q7.79-11.01 8.97-10.27Q10.15-9.53 10.81-8.25Q11.47-6.97 11.47-5.37L11.47-5.37Q11.47-3.78 10.81-2.48Q10.15-1.19 8.97-0.46Q7.79 0.28 6.27 0.28L6.27 0.28ZM6.27-1.00Q7.42-1.00 8.32-1.57Q9.21-2.13 9.70-3.12Q10.20-4.12 10.20-5.37L10.20-5.37Q10.20-6.61 9.70-7.60Q9.21-8.60 8.32-9.16Q7.42-9.73 6.27-9.73L6.27-9.73Q5.10-9.73 4.19-9.16Q3.28-8.60 2.79-7.60Q2.30-6.61 2.30-5.37L2.30-5.37Q2.30-4.12 2.79-3.12Q3.28-2.13 4.19-1.57Q5.10-1.00 6.27-1.00L6.27-1.00Z" transform="translate(-5.396220690555982 0), rotate(-39.17418259650156 6.249378111987758 -208.13876155316586)"></path><path d="M6.46-10.79Q7.55-10.79 8.32-10.13Q9.09-9.47 9.09-8.45L9.09-8.45Q9.09-7.70 8.60-7.07Q8.10-6.44 7.36-6.12L7.36-6.12Q7.19-6.08 7.10-6.08L7.10-6.08Q6.85-6.08 6.65-6.26Q6.46-6.44 6.46-6.70L6.46-6.70Q6.46-6.91 6.58-7.07Q6.70-7.23 6.87-7.32L6.87-7.32Q7.23-7.44 7.52-7.77Q7.81-8.10 7.81-8.45L7.81-8.45Q7.81-8.96 7.41-9.27Q7.02-9.58 6.46-9.58L6.46-9.58L3.50-9.58Q3.78-8.96 3.78-8.28L3.78-8.28L3.71-5.50Q3.60-0.45 3.60-0.34L3.60-0.34Q3.58-0.09 3.40 0.11Q3.22 0.30 2.96 0.30L2.96 0.30Q2.69 0.30 2.51 0.11Q2.32-0.09 2.32-0.34L2.32-0.34Q2.32-0.47 2.43-5.48L2.43-5.48L2.50-8.25Q2.50-8.70 2.29-9.09Q2.09-9.47 1.81-9.60L1.81-9.60Q1.30-9.94 1.30-10.26L1.30-10.26Q1.30-10.49 1.47-10.64Q1.64-10.79 1.90-10.79L1.90-10.79L6.46-10.79Z" transform="translate(-4.116484558408318 0), rotate(-42.2684330946933 5.193595802965936 -208.13876155316586)"></path><path d="M10.52-2.37Q10.79-2.37 10.95-2.20Q11.11-2.03 11.11-1.77L11.11-1.77Q11.11-1.54 10.94-1.30L10.94-1.30Q10.32-0.55 9.10-0.12Q7.87 0.32 6.44 0.32L6.44 0.32Q4.91 0.32 3.67-0.37Q2.43-1.07 1.73-2.30Q1.02-3.54 1.02-5.10L1.02-5.10Q1.02-6.74 1.76-8.07Q2.50-9.41 3.76-10.17Q5.03-10.94 6.59-10.94L6.59-10.94Q7.81-10.94 8.76-10.53Q9.70-10.11 10.24-9.37Q10.77-8.64 10.77-7.74L10.77-7.74Q10.77-6.48 9.63-5.71Q8.49-4.93 6.61-4.93L6.61-4.93Q5.37-4.93 4.23-5.26Q3.09-5.59 2.41-6.12L2.41-6.12Q2.30-5.52 2.30-5.01L2.30-5.01Q2.30-3.84 2.84-2.91Q3.37-1.98 4.31-1.47Q5.25-0.96 6.44-0.96L6.44-0.96Q7.70-0.96 8.62-1.27Q9.53-1.58 10.00-2.18L10.00-2.18Q10.20-2.37 10.52-2.37L10.52-2.37ZM6.59-9.66Q5.33-9.66 4.33-9.04Q3.33-8.42 2.79-7.32L2.79-7.32Q3.39-6.83 4.40-6.48Q5.42-6.14 6.61-6.14L6.61-6.14Q7.93-6.14 8.71-6.57Q9.49-7.00 9.49-7.70L9.49-7.70Q9.49-8.53 8.68-9.10Q7.87-9.66 6.59-9.66L6.59-9.66Z" transform="translate(-5.214924738501729 0), rotate(-45.30371245110336 6.068082159933505 -208.13876155316586)"></path></g></svg></g> <g transform="rotate(0 262.39657566719916 383.68302873895163)"><svg xmlns="http://www.w3.org/2000/svg" y="359.28802828118796" viewBox="0 17.329999923706055 247.4199981689453 48.790000915527344" x="138.6865765827265" height="48.790000915527344" width="247.4199981689453" style="overflow: visible;"><g fill="#000" fill-opacity="1" style=""><path d="M25.91 21.33L20.74 21.33L20.74 50.66L25.91 50.66L25.91 54.66L11.52 54.66L11.52 50.66L16.21 50.66L16.21 21.44Q9.65 21.86 6.96 23.62Q4.27 25.38 4.27 28.74L4.27 28.74Q4.27 30.34 4.96 31.38Q5.65 32.42 6.99 32.42L6.99 32.42Q9.49 32.42 9.49 28.21L9.49 28.21L13.76 28.21Q13.76 31.67 12.16 34.05Q10.56 36.42 6.99 36.42Q3.41 36.42 1.71 34.18Q0 31.94 0 28.74L0 28.74Q0 23.52 4.96 20.42Q9.92 17.33 20.74 17.33L20.74 17.33L25.91 17.33L25.91 21.33ZM36.90 34.66L36.90 51.19L41.54 51.19L41.54 54.66L28.26 54.66L28.26 51.19L32.37 51.19L32.37 31.46L28.26 31.46L28.26 27.99L35.89 27.99L36.53 30.82Q38.34 29.81 39.46 29.25Q40.58 28.69 42.68 28.07Q44.79 27.46 46.76 27.46L46.76 27.46Q51.35 27.46 53.08 30.18Q54.82 32.90 54.82 37.70L54.82 37.70L54.82 51.46L59.19 51.46L59.19 53.70Q57.22 54.92 54.63 54.92Q52.04 54.92 51.16 54.04Q50.28 53.16 50.28 51.19L50.28 51.19L50.28 37.70Q50.28 34.61 49.48 33.03Q48.68 31.46 45.80 31.46Q42.92 31.46 36.90 34.66L36.90 34.66ZM61.85 53.11L61.85 46.98L65.59 46.98L65.59 50.34Q67.61 51.14 70.52 51.14Q73.43 51.14 74.95 50.20Q76.46 49.27 76.46 47.88Q76.46 46.50 75.32 45.62Q74.17 44.74 69.88 42.44Q65.59 40.15 63.88 38.58Q62.17 37.01 62.17 34.45L62.17 34.45Q62.17 31.14 64.76 29.30Q67.35 27.46 71.83 27.46Q76.30 27.46 80.30 29.65L80.30 29.65L80.30 35.99L76.57 35.99L76.57 32.42Q74.23 31.46 71.59 31.46Q68.95 31.46 67.83 32.45Q66.71 33.43 66.71 34.61Q66.71 35.78 67.56 36.47L67.56 36.47Q69.00 37.65 72.73 39.51L72.73 39.51Q77.48 42.12 79.24 43.72Q81.00 45.32 81.00 47.83L81.00 47.83Q81.00 51.14 78.17 53.14Q75.35 55.14 70.31 55.14Q65.27 55.14 61.85 53.11L61.85 53.11ZM88.30 31.46L84.20 31.46L84.20 27.99L91.82 27.99L92.57 31.25Q95.77 27.46 100.78 27.46Q105.79 27.46 108.51 31.33Q111.23 35.19 111.23 41.25Q111.23 47.30 108.03 51.24Q104.83 55.19 98.91 55.19L98.91 55.19Q96.14 55.19 92.83 54.12L92.83 54.12L92.83 62.65L96.94 62.65L96.94 66.12L84.20 66.12L84.20 62.65L88.30 62.65L88.30 31.46ZM106.70 41.51Q106.70 37.11 104.94 34.29Q103.18 31.46 100.01 31.46Q96.83 31.46 94.83 33.97Q92.83 36.47 92.83 39.99L92.83 39.99L92.83 49.54Q95.71 51.19 98.54 51.19L98.54 51.19Q102.22 51.19 104.46 48.55Q106.70 45.91 106.70 41.51ZM118.32 51.27Q114.96 47.35 114.96 41.33Q114.96 35.30 118.32 31.38Q121.68 27.46 127.76 27.46Q133.84 27.46 137.20 31.38Q140.56 35.30 140.56 41.33Q140.56 47.35 137.20 51.27Q133.84 55.19 127.76 55.19Q121.68 55.19 118.32 51.27ZM121.68 34.23Q119.50 37.01 119.50 41.33Q119.50 45.64 121.68 48.42Q123.87 51.19 127.76 51.19Q131.65 51.19 133.84 48.42Q136.03 45.64 136.03 41.33Q136.03 37.01 133.84 34.23Q131.65 31.46 127.76 31.46Q123.87 31.46 121.68 34.23ZM163.17 17.33L163.17 17.33L178.26 17.33L178.26 25.97L174.31 25.97L174.31 21.33L166.10 21.33L166.10 50.66L171.27 50.66L171.27 54.66L156.88 54.66L156.88 50.66L161.57 50.66L161.57 21.33L158.64 21.33Q152.08 21.76 149.38 23.57Q146.69 25.38 146.69 28.74L146.69 28.74Q146.69 30.34 147.38 31.38Q148.08 32.42 149.41 32.42L149.41 32.42Q151.92 32.42 151.92 28.21L151.92 28.21L156.18 28.21Q156.18 31.67 154.58 34.05Q152.98 36.42 149.41 36.42Q145.84 36.42 144.13 34.18Q142.43 31.94 142.43 28.74L142.43 28.74Q142.43 23.52 147.38 20.42Q152.34 17.33 163.17 17.33ZM189.78 34.23L189.78 51.19L194.41 51.19L194.41 54.66L181.14 54.66L181.14 51.19L185.24 51.19L185.24 31.46L181.14 31.46L181.14 27.99L188.76 27.99L189.40 30.82Q191.22 29.81 192.34 29.25Q193.45 28.69 195.56 28.07Q197.67 27.46 199.64 27.46L199.64 27.46L202.63 28.26L201.40 32.63L199.00 31.99Q194.52 31.99 189.78 34.23L189.78 34.23ZM208.81 31.46L204.71 31.46L204.71 27.99L213.34 27.99L213.34 51.19L217.98 51.19L217.98 54.66L204.65 54.66L204.65 51.19L208.81 51.19L208.81 31.46ZM210.94 23.25Q209.77 23.25 209.03 22.40Q208.28 21.54 208.28 20.34Q208.28 19.14 209.11 18.24Q209.93 17.33 211.10 17.33Q212.28 17.33 213.02 18.18Q213.77 19.04 213.77 20.24Q213.77 21.44 212.94 22.34Q212.12 23.25 210.94 23.25ZM224.49 31.46L220.38 31.46L220.38 27.99L228.01 27.99L228.75 31.25Q231.95 27.46 236.97 27.46Q241.98 27.46 244.70 31.33Q247.42 35.19 247.42 41.25Q247.42 47.30 244.22 51.24Q241.02 55.19 235.10 55.19L235.10 55.19Q232.33 55.19 229.02 54.12L229.02 54.12L229.02 62.65L233.13 62.65L233.13 66.12L220.38 66.12L220.38 62.65L224.49 62.65L224.49 31.46ZM242.89 41.51Q242.89 37.11 241.13 34.29Q239.37 31.46 236.19 31.46Q233.02 31.46 231.02 33.97Q229.02 36.47 229.02 39.99L229.02 39.99L229.02 49.54Q231.90 51.19 234.73 51.19L234.73 51.19Q238.41 51.19 240.65 48.55Q242.89 45.91 242.89 41.51Z" transform="translate(0, 0)"></path></g></svg></g></svg>